<?xml version="1.0" encoding="UTF-8"?>
<svg id="Layer_1" xmlns="http://www.w3.org/2000/svg" version="1.1" viewBox="0 0 760.45 351.83">
  <!-- Generator: Adobe Illustrator 30.4.0, SVG Export Plug-In . SVG Version: 2.1.4 Build 226)  -->
  <path d="M731.19,108.6c-1.59-51.27-50.69-87.43-99.56-79.57-21.47,3.45-40.33,12.43-55.76,27.63l-74.97,73.91-95.67,95.3-86.55,86.14c-9.5,9.46-23.74,12.02-35.55,8.75-10.35-2.87-17.92-10.42-19.91-20.28l14.4-.42c8.13-.24,17.61-2.99,23.84-9.18L560.56,33.45c19.91-19.78,47.43-30.46,74.76-32.95,40.12-3.66,77.96,12.97,102.28,44.69,13.27,17.3,22.35,38.63,22.42,60.97l.43,143.95c.12,40.26-22.24,76.77-58.58,93.18-37.09,16.75-77.69,6.64-105.92-21.71l-112.79-113.29,18.77-19.11,116.44,115.94c13.57,13.51,33.26,19.53,52.16,16.88,33.61-4.73,61-34.27,60.94-68.86l-.27-144.53h-.01,0Z"/>
  <path d="M66.15,313.65c27.08,15.42,57.29,9.5,78.46-11.53l77.65-77.13,36.76-36.75,20.83,20.51-119.99,118.52c-26.57,26.25-67.19,31.14-100.67,16.21C20.84,326.37-.18,287.63,0,246.13L.62,108.16c.13-30.13,14.99-57.99,37.12-77.47,47.01-41.39,117.33-40.31,163.31,2.28l42.93,41.86,111.65,110.5-20.2,20.5L181.85,55.11c-31.19-29.34-77.08-34.16-113.01-10.37-21.71,14.38-38.38,38.34-38.38,65.45l.02,145.88c0,24.25,15.34,46,35.67,57.58h0Z"/>
  <circle cx="445.2" cy="297.86" r="24.55"/>
</svg>