<?xml version="1.0" encoding="UTF-8"?>
<svg id="Layer_1" xmlns="http://www.w3.org/2000/svg" version="1.1" viewBox="0 0 1377.49 603.85">
  <!-- Generator: Adobe Illustrator 30.4.0, SVG Export Plug-In . SVG Version: 2.1.4 Build 226)  -->
  <defs>
    <style>
      .st0 {
        fill: #090808;
      }

      .st1 {
        fill: #04b6c2;
      }

      .st2 {
        fill: #fc5b06;
      }
    </style>
  </defs>
  <g>
    <path class="st2" d="M1034.73,108.6c-1.59-51.27-50.69-87.43-99.56-79.57-21.47,3.45-40.33,12.43-55.76,27.63l-74.97,73.91-95.67,95.3-86.55,86.14c-9.5,9.46-23.74,12.02-35.55,8.75-10.35-2.87-17.92-10.42-19.91-20.28l14.4-.42c8.13-.24,17.61-2.99,23.84-9.18L864.1,33.45c19.91-19.78,47.43-30.46,74.76-32.95,40.12-3.66,77.96,12.97,102.28,44.69,13.27,17.3,22.35,38.63,22.42,60.97l.43,143.95c.12,40.26-22.24,76.77-58.58,93.18-37.09,16.75-77.69,6.64-105.92-21.71l-112.79-113.29,18.77-19.11,116.44,115.94c13.57,13.51,33.26,19.53,52.16,16.88,33.61-4.73,61-34.27,60.94-68.86l-.27-144.53h-.01Z"/>
    <path class="st1" d="M369.69,313.65c27.08,15.42,57.29,9.5,78.46-11.53l77.65-77.13,36.76-36.75,20.83,20.51-119.99,118.52c-26.57,26.25-67.19,31.14-100.67,16.21-38.35-17.11-59.37-55.85-59.19-97.35l.62-137.97c.13-30.13,14.99-57.99,37.12-77.47,47.01-41.39,117.33-40.31,163.31,2.28l42.93,41.86,111.65,110.5-20.2,20.5L485.39,55.11c-31.19-29.34-77.08-34.16-113.01-10.37-21.71,14.38-38.38,38.34-38.38,65.45l.02,145.88c0,24.25,15.34,46,35.67,57.58h0Z"/>
    <circle class="st2" cx="748.74" cy="297.86" r="24.55"/>
  </g>
  <g>
    <polygon class="st0" points="125.41 527.89 125.24 455.46 77.33 510.5 65.72 510.52 17.82 455.82 17.22 527.77 0 527.86 0 429.48 17.17 429.42 71.57 491.16 126.25 429.4 143.43 429.45 143.46 527.77 125.41 527.89"/>
    <path class="st0" d="M1068.06,489.63l-.29,38.25-16.91-.04-.07-54.33,95.89-.28c8.13-.02,14.04-6.57,14.04-13.59,0-6.31-5.49-14.16-13.4-14.18l-96.51-.31v-15.73l94.22.03c11.41,0,22.14,4.94,28.83,13.91,5.76,7.71,6.65,18.07,2.92,27.61-2.99,7.65-10.09,14.42-20.47,17.56l30.24,39.17-23.19.2-30.36-38.21-64.94-.05h0Z"/>
    <path class="st0" d="M446.56,489.65l-.58,38.11-17.55.1v-54.4l93.29-.22c8.03-.02,13.69-6.78,13.61-13.6-.07-6.34-5.28-14.11-13.22-14.14l-93.69-.36v-15.74l91.6.05c11.03,0,21.79,4.84,28,13.52,5.88,8.22,6.77,18.13,3.37,27.74-2.85,8.04-9.57,14.71-20.02,17.65l30.22,39.32-23.03.18-29.8-38.16-62.21-.05h.01Z"/>
    <path class="st0" d="M677.62,511.24l77.03.59.02,16.06-79.42-.38c-13.53-.07-26.16-6.96-35.07-16.33-17.92-18.85-16.12-56.72,8.13-72.77,7.35-4.87,16.52-8.8,25.72-8.83l80.68-.23-.03,15.75-76.08.46c-21.4.13-35.14,20.12-30.56,40.69,2.96,13.28,14.45,24.87,29.56,24.99h.02Z"/>
    <path class="st0" d="M947.43,429.46l17.96-.04-.18,59.95c-.06,20.35-16.3,36.48-36.76,37.97l-47.45.43c-23.66.21-43.85-14.51-43.94-37.61l-.23-60.61,17.94-.12.13,58.79c.03,14.62,13.04,23.64,28.15,23.54l40.96-.27c12.77-.08,22.57-11.05,23.36-23.18l.07-58.85h-.01Z"/>
    <polygon class="st0" points="1369.18 438.93 1316.89 493.27 1316.75 527.87 1298.92 527.89 1298.89 493.13 1238.2 429.84 1261.65 429.51 1307.95 478.1 1354.92 429.55 1377.49 429.43 1369.18 438.93"/>
    <rect class="st0" x="228.11" y="470.19" width="117.88" height="16.54"/>
    <rect class="st0" x="227.45" y="512.07" width="117.83" height="16.27"/>
    <rect class="st0" x="227.79" y="429.61" width="117.66" height="15.94"/>
  </g>
  <g>
    <polygon class="st1" points="613.95 603.22 613.69 586.72 606.2 597.13 598.87 586.59 598.71 603.1 592.66 602.78 592.7 576.63 599.24 576.83 606.27 587.78 613.5 576.69 619.85 576.65 619.92 603.19 613.95 603.22"/>
    <polygon class="st1" points="415.59 603.09 409.87 602.7 397.64 587.01 397.4 603.69 391.35 603.01 391.36 576.6 397.23 576.88 409.16 592.31 409.71 576.66 415.52 576.65 415.59 603.09"/>
    <path class="st1" d="M979.46,602.97l-5.7-.49-11.76-15.13-.41,15.75h-5.83l-.12-26.34c1.36-.28,5.27-.39,6.25.88l11.13,14.32.67-15.27h5.66l.1,26.29h.01Z"/>
    <path class="st1" d="M661.36,589.54c2.23,1.41,4.4,3.95,4.23,6.9-.14,2.41-2.88,6.27-5.65,6.34l-17.65.44.05-26.69,15.46.29c1.99.04,5.2,2.71,5.79,4.49.72,2.17-.24,5.57-2.22,8.23h0ZM656.97,582.45c-2.01-.47-6.73-.68-8.45-.53-.31,2.03-.65,4.49.22,5.18.7.56,3.45.7,4.37.46l4.5-1.17c.8-.21.15-3.76-.64-3.94h0ZM657.19,597.9c1.03-.04,2.66-2.44,2.36-3.23s-1.82-2.35-2.7-2.38l-8.45-.27v6.18l8.78-.31h.01Z"/>
    <path class="st1" d="M87.43,602.71c-1.26.12-4.36.09-5.7-.1l-12.45-15.75-.39,16.33-5.66-.03-.05-26.51,5.91.23,11.93,15.38.72-15.62,5.6.12.1,25.95h-.01Z"/>
    <path class="st1" d="M1258.1,602.63c-11.01,3.44-8.59-9.4-16.55-7.83l-.23,8.16-6.04.1v-26.5l14.35.31c4.19.09,7.49,3.86,7.92,7.08.58,4.39-1.34,7.41-5.44,9.96l5.98,8.72h.01ZM1249.91,588.9c.94-.22,2.03-3.4,1.69-4.21s-1.81-2.59-2.68-2.61l-7.86-.26.13,7.73c2.28.01,6.76-.19,8.72-.65h0Z"/>
    <path class="st1" d="M319.98,592.69c-1.46.04-4.46.47-4.44-.34l.1-4.2h11.89l.02,11.5c-5.89,4.44-13.5,5.7-19.96,1.84-5.38-3.21-7.13-10.26-5.32-15.73,2.04-6.15,7.88-9.88,14.86-9.48,3.2.18,6.02,1.2,8.96,3.2-.77,1.66-2.35,3.81-3.34,4.53-4.27-3.02-8.98-3.41-12.38-.12-2.75,2.66-3.23,7.83-.87,11.22s7.71,4.58,11.63,1.79c.9-.64.02-4.25-1.13-4.22h-.02Z"/>
    <path class="st1" d="M1050.04,603.02c-11.67,2.56-8.87-11.02-16.88-7.84l-.37,7.92-5.51-.11v-26.44l14.42.34c3.86.09,7.02,4.01,7.61,7.24.76,4.14-1.44,7.58-5.48,9.59l6.21,9.31h0ZM1042.21,588.62c1.68-.22,1.28-6.14-.29-6.26l-9.07-.72.04,8.18,9.32-1.2Z"/>
    <path class="st1" d="M867.66,603.08l-11.16.08-.06-26.58,13.02.45c7.26.25,11.76,7.35,11.42,13.59-.37,6.65-5.4,12.4-13.21,12.46h-.01ZM862.32,597.49c3.07,1.1,7.92.56,10.03-1.63,2.81-2.92,2.79-7.48.99-10.52-1.93-3.27-6.08-3.99-11.01-3.3v15.46h-.01Z"/>
    <path class="st1" d="M786.06,602.43l-14.88.81v-26.65l11.62.21c6.82.12,11.84,5.17,12.64,11.24s-1.94,13.04-9.38,14.39ZM777.07,597.87c5.34.84,9.12-.29,11-3.32,2.02-3.27,1.52-7.68-.84-10.22s-7.8-3.35-10.4-1.72l.24,15.26h0Z"/>
    <path class="st1" d="M741.1,602.47l-14.57.68v-26.58l13.04.39c6.38.19,10.72,6.48,11.26,11.82.6,5.88-2.76,12.45-9.73,13.69ZM732.2,596.97c2.58,2.27,8.71,1.12,10.64-1.47,2.3-3.09,2.45-7.66.59-10.42-2.24-3.31-7.69-4.09-11.14-2.67l-.08,14.56h-.01Z"/>
    <polygon class="st1" points="569.36 592.29 556.79 592.37 556.84 598.01 571.52 598.19 571.48 603.28 550.56 603.22 550.52 576.63 571.06 576.7 570.95 581.89 556.53 581.79 556.69 587.26 569.52 587.43 569.36 592.29"/>
    <path class="st1" d="M500.66,592.51l-10.99-.04c-1.45,0-1.66,5.27-.23,5.32l13.08.48-.04,4.85-20.05.07-.09-26.53h20.19v5.06l-14.67.19,1.04,5.35,11.9.23-.14,5.03h0Z"/>
    <polygon class="st1" points="368.05 592.29 355.49 592.17 355.84 598.07 369.82 598.19 369.81 603.07 349.45 603.29 349.43 576.68 369.79 576.65 369.81 581.8 355.43 581.83 355.74 587.19 368.03 587.36 368.05 592.29"/>
    <polygon class="st1" points="704.05 592.31 691.83 592.24 691.91 598.09 706.09 598.06 705.85 603.12 685.71 603.15 685.63 576.68 705.75 576.64 705.73 581.75 691.71 581.84 691.74 587.34 703.92 587.42 704.05 592.31"/>
    <polygon class="st1" points="169.63 592.25 156.99 592.24 157 598.01 171.6 598.14 171.43 603.01 150.79 603.23 150.6 576.67 171.31 576.7 170.96 581.79 156.91 581.84 156.9 587.33 169.17 587.36 169.63 592.25"/>
    <polygon class="st1" points="1088.47 592.54 1076.22 592.41 1076 597.74 1090.14 598.23 1090.11 602.97 1070.1 603.2 1070.12 576.65 1090.06 576.64 1089.99 581.79 1075.96 581.78 1075.96 587.38 1088.4 587.35 1088.47 592.54"/>
    <polygon class="st1" points="1343.01 602.8 1337.41 603.35 1337.24 592.85 1326.74 592.53 1326.63 603.02 1320.87 602.96 1320.95 576.75 1326.6 576.65 1326.69 587.42 1337.25 587.35 1337.31 576.58 1342.96 576.62 1343.01 602.8"/>
    <polygon class="st1" points="834.09 592.29 821.9 592.34 821.92 598.14 836.07 598.12 836.04 603.22 815.73 603.01 815.93 576.66 835.85 576.64 835.87 581.81 821.84 581.82 821.89 587.36 834.04 587.36 834.09 592.29"/>
    <path class="st1" d="M1168.44,592.16l-11.42.15c-1.26.32-1.47,4.54-.44,5.54l13.83.61.02,4.78-20.24-.13v-26.48l19.81.02-.03,5.13-14.14-.02.19,5.5,12.48.07-.05,4.82h0Z"/>
    <path class="st1" d="M1125.16,602.72c-5.57,2.28-11.53.64-15.83-2.95-.19-1.47,2.6-4.73,3.73-3.91,3.61,2.57,8.46,4.69,11.57-.09-3.77-4.7-13.41-3.11-14.39-9.19-.62-3.86.76-7.34,4.19-8.96,4.89-2.32,10.8-1.31,14.39,2.19-2.34,8.97-8.92-3.3-13.35,4.81,5.75,4.12,13.19,2.43,14.8,9.71.67,3.02-1.3,6.83-5.11,8.39Z"/>
    <path class="st1" d="M1208.02,597.83c-2.51-.73-8.44-.75-11.1-.13l-2.44,4.8c-.63,1.24-5.07.69-5.89-.07l10.79-25.3,5.85-.38,10.91,25.92c-.99.22-3.96.41-5.23.25-1.15-.15-1.71-2.26-2.88-5.09h-.01ZM1206.04,592.22l-3.81-8.26-3.3,8.31,7.1-.05h.01Z"/>
    <path class="st1" d="M442.97,590.63c.2,3.43,2.67,6.64,4.97,7.42,6.71,2.27,10.35-7.29,12.93.93-3.24,4.78-9.92,5.72-15.12,4.05s-9.37-6.49-9.38-12.84c0-5.95,3.9-10.94,8.59-12.7,5.65-2.12,11.53-1.49,16.32,3l-3.81,3.92c-3.51-2.34-6.14-3.37-9.64-2.25-2.52.81-5.09,4.47-4.86,8.48h0Z"/>
    <path class="st1" d="M1282.91,590.55c.28,3.64,2.8,6.67,5.07,7.48,6.76,2.41,10.01-7.12,12.88,1.15-4.9,5.93-14.02,6.06-19.57,1.24-6.08-5.28-6.24-14.13-.93-19.72,5.54-5.84,14.99-5.88,20.42-.05-1.46,1.67-3.34,3.33-4.24,3.35-2.71-1.99-6.5-3.11-9.48-1.59-2.04,1.05-4.41,4.6-4.14,8.13h-.01Z"/>
    <polygon class="st1" points="121.97 603.07 115.68 603.17 115.7 582.52 108.44 581.77 108.02 576.72 129.92 576.61 129.93 581.92 121.83 581.99 121.97 603.07"/>
    <polygon class="st1" points="252.63 598.1 252.86 603.21 233.39 603.22 233.29 576.61 239.54 576.64 239.6 597.75 252.63 598.1"/>
    <polygon class="st1" points="212.19 598.11 212.15 602.99 193.12 603.24 193.15 576.63 198.9 576.61 198.92 597.73 212.19 598.11"/>
    <rect class="st1" x="273.63" y="576.62" width="6.08" height="26.46" transform="translate(-5.65 2.68) rotate(-.55)"/>
    <rect class="st1" x="928.07" y="576.57" width="6.02" height="26.65"/>
    <rect class="st1" x="34.04" y="576.59" width="6.06" height="26.66"/>
  </g>
</svg>